<?xml version="1.0" encoding="utf-8"?>
<!-- Generator: Adobe Illustrator 24.3.0, SVG Export Plug-In . SVG Version: 6.00 Build 0)  -->
<svg version="1.1" xmlns="http://www.w3.org/2000/svg" xmlns:xlink="http://www.w3.org/1999/xlink" x="0px" y="0px"
	 viewBox="0 0 657.6 318.2" style="enable-background:new 0 0 657.6 318.2;" xml:space="preserve">
<style type="text/css">
	.st0{fill:none;stroke:#010101;stroke-width:1.5;}
	.st1{fill:none;stroke:#71CCDA;stroke-width:1.5;}
	.st2{fill:none;stroke:#70CDDD;stroke-width:1.5;}
	.st3{fill:none;stroke:#4953A4;stroke-width:1.5;}
	.st4{fill:none;stroke:#D04B9B;stroke-width:1.5;}
	.st5{fill:none;stroke:#EE203E;stroke-width:1.5;}
	.st6{fill:none;stroke:#ED2224;stroke-width:1.5;}
	.st7{fill:#FFFFFF;stroke:#010101;stroke-width:1.5;}
	.st8{fill:none;stroke:#8CC63F;stroke-width:1.5;}
	.st9{fill:none;stroke:#D3499A;stroke-width:1.5;}
	.st10{fill:none;stroke:#4B53A4;stroke-width:1.5;}
	.st11{fill:none;stroke:#EE203B;stroke-width:1.5;}
	.st12{fill:none;stroke:#000000;stroke-miterlimit:10;}
	.st13{fill:none;}
	.st14{font-family:'MyriadPro-Regular';}
	.st15{font-size:12px;}
	.st16{fill:#EB926E;}
	.st17{fill:#C9549F;}
	.st18{fill:none;stroke:#6D6E71;stroke-width:0.5;stroke-miterlimit:10;}
	.st19{fill:none;stroke:#6D6E71;stroke-width:0.5;stroke-miterlimit:10;stroke-dasharray:3.004,3.004;}
	.st20{fill:none;stroke:#6D6E71;stroke-width:0.5;stroke-miterlimit:10;stroke-dasharray:3.0804,3.0804;}
	.st21{fill:none;stroke:#6D6E71;stroke-width:0.5;stroke-miterlimit:10;stroke-dasharray:3.1274,3.1274;}
	.st22{fill:none;stroke:#3B54A5;stroke-width:2;stroke-miterlimit:10;}
	.st23{fill:#3B54A5;}
	.st24{fill:none;stroke:#6D6E71;stroke-miterlimit:10;stroke-dasharray:3;}
	.st25{fill:#E885B6;}
	.st26{fill:#692C59;}
	.st27{opacity:0.53;fill:#C9549F;}
	.st28{font-family:'MyriadPro-Semibold';}
	.st29{fill:none;stroke:#000000;stroke-miterlimit:10;stroke-dasharray:3.9028,3.9028;}
	.st30{fill:#EA926E;}
	.st31{fill:#CA539F;}
</style>
<g id="Layer_10">
	<g>
		<circle class="st0" cx="156" cy="468.4" r="116.7"/>
		<path class="st1" d="M156,351.7L257,410"/>
		<path class="st2" d="M257,410v116.7"/>
		<path class="st3" d="M257,526.7L97.7,569.4"/>
		<path class="st1" d="M97.7,569.4l-58.3-101"/>
		<path class="st3" d="M39.3,468.4L156,351.7"/>
		<path class="st4" d="M156,351.7l101,175"/>
		<path class="st5" d="M156,351.7L97.7,569.4"/>
		<path class="st3" d="M156,351.7L39.3,468.4"/>
		<path class="st2" d="M257,410v116.7"/>
		<path class="st5" d="M257,410L97.7,569.4"/>
		<path class="st5" d="M257,410L39.3,468.4"/>
		<path class="st6" d="M257,526.7L257,526.7"/>
		<path class="st3" d="M257,526.7L97.7,569.4"/>
		<path class="st5" d="M257,526.7L39.3,468.4"/>
		<circle class="st7" cx="156" cy="351.7" r="6.5"/>
		<text transform="matrix(1 0 0 1 154.2897 353.7019)" style="fill:#010101; font-family:'ArialMT'; font-size:6.1987px;">0</text>
		<circle class="st7" cx="257" cy="410" r="6.5"/>
		<text transform="matrix(1 0 0 1 255.2917 412.0423)" style="fill:#010101; font-family:'ArialMT'; font-size:6.1987px;">2</text>
		<circle class="st7" cx="257" cy="526.7" r="6.5"/>
		<text transform="matrix(1 0 0 1 255.2917 528.7239)" style="fill:#010101; font-family:'ArialMT'; font-size:6.1987px;">4</text>
		<circle class="st7" cx="97.7" cy="569.4" r="6.5"/>
		<text transform="matrix(1 0 0 1 95.9489 571.3855)" style="fill:#010101; font-family:'ArialMT'; font-size:6.1987px;">7</text>
		<circle class="st7" cx="39.3" cy="468.4" r="6.5"/>
		<text transform="matrix(1 0 0 1 37.6081 470.3831)" style="fill:#010101; font-family:'ArialMT'; font-size:6.1987px;">9</text>
	</g>
	<g>
		<circle class="st0" cx="488.1" cy="465.1" r="113.6"/>
		<path class="st8" d="M488.1,351.5l56.8,14.9"/>
		<path class="st8" d="M544.9,366.4l41.5,41.9"/>
		<path class="st8" d="M586.5,408.3l15.3,56.8"/>
		<path class="st8" d="M601.7,465.1l-15.3,56.8"/>
		<path class="st8" d="M586.5,521.9l-41.5,41.5"/>
		<path class="st8" d="M544.9,563.4l-56.8,15.3"/>
		<path class="st8" d="M488.1,578.7l-56.8-15.3"/>
		<path class="st8" d="M431.3,563.4l-41.9-41.5"/>
		<path class="st8" d="M389.5,521.9l-14.9-56.8"/>
		<path class="st8" d="M374.6,465.1l14.9-57.1"/>
		<path class="st8" d="M389.5,408l41.5-41.5"/>
		<path class="st8" d="M431,366.4l57.1-14.9"/>
		<path class="st1" d="M488.1,351.5l98.3,56.8"/>
		<path class="st3" d="M488.1,351.5l113.6,113.6"/>
		<path class="st4" d="M488.1,351.5l98.3,170.4"/>
		<path class="st5" d="M488.1,351.5l56.8,211.9"/>
		<path class="st6" d="M488.1,351.5v227.2"/>
		<path class="st5" d="M488.1,351.5l-56.8,211.9"/>
		<path class="st9" d="M488.1,351.5l-98.7,170.4"/>
		<path class="st3" d="M488.1,351.5L374.6,465.1"/>
		<path class="st2" d="M488.1,351.5L389.5,408"/>
		<path class="st8" d="M488.1,351.5L431,366.4"/>
		<path class="st8" d="M544.9,366.4l41.5,41.9"/>
		<path class="st2" d="M544.9,366.4l56.8,98.7"/>
		<path class="st10" d="M544.9,366.4l41.5,155.5"/>
		<path class="st9" d="M544.9,366.4v197"/>
		<path class="st11" d="M544.9,366.4l-56.8,212.3"/>
		<path class="st6" d="M544.9,366.4l-113.6,197"/>
		<path class="st11" d="M544.9,366.4L389.5,521.9"/>
		<path class="st9" d="M544.9,366.4l-170.4,98.7"/>
		<path class="st10" d="M544.9,366.4L389.5,408"/>
		<path class="st2" d="M544.9,366.4H431"/>
		<path class="st6" d="M586.5,408.3L586.5,408.3"/>
		<path class="st8" d="M586.5,408.3l15.3,56.8"/>
		<path class="st2" d="M586.5,408.3v113.6"/>
		<path class="st3" d="M586.5,408.3l-41.5,155.1"/>
		<path class="st4" d="M586.5,408.3l-98.3,170.4"/>
		<path class="st5" d="M586.5,408.3L431.3,563.4"/>
		<path class="st6" d="M586.5,408.3l-197,113.6"/>
		<path class="st5" d="M586.5,408.3l-211.9,56.8"/>
		<path class="st9" d="M586.5,408.3l-197-0.4"/>
		<path class="st10" d="M586.5,408.3L431,366.4"/>
		<path class="st8" d="M601.7,465.1l-15.3-56.8"/>
		<path class="st6" d="M601.7,465.1L601.7,465.1"/>
		<path class="st8" d="M601.7,465.1l-15.3,56.8"/>
		<path class="st1" d="M601.7,465.1l-56.8,98.3"/>
		<path class="st3" d="M601.7,465.1L488.1,578.7"/>
		<path class="st4" d="M601.7,465.1l-170.4,98.3"/>
		<path class="st11" d="M601.7,465.1l-212.3,56.8"/>
		<path class="st6" d="M601.7,465.1H374.6"/>
		<path class="st11" d="M601.7,465.1L389.5,408"/>
		<path class="st9" d="M601.7,465.1L431,366.4"/>
		<path class="st2" d="M586.5,521.9V408.3"/>
		<path class="st8" d="M586.5,521.9l15.3-56.8"/>
		<path class="st6" d="M586.5,521.9L586.5,521.9"/>
		<path class="st8" d="M586.5,521.9l-41.5,41.5"/>
		<path class="st1" d="M586.5,521.9l-98.3,56.8"/>
		<path class="st3" d="M586.5,521.9l-155.1,41.5"/>
		<path class="st9" d="M586.5,521.9h-197"/>
		<path class="st5" d="M586.5,521.9l-211.9-56.8"/>
		<path class="st6" d="M586.5,521.9L389.5,408"/>
		<path class="st11" d="M586.5,521.9L431,366.4"/>
		<path class="st3" d="M544.9,563.4l41.5-155.1"/>
		<path class="st1" d="M544.9,563.4l56.8-98.3"/>
		<path class="st8" d="M544.9,563.4l41.5-41.5"/>
		<path class="st6" d="M544.9,563.4L544.9,563.4"/>
		<path class="st8" d="M544.9,563.4l-56.8,15.3"/>
		<path class="st2" d="M544.9,563.4H431.3"/>
		<path class="st10" d="M544.9,563.4l-155.5-41.5"/>
		<path class="st4" d="M544.9,563.4l-170.4-98.3"/>
		<path class="st11" d="M544.9,563.4L389.5,408"/>
		<path class="st6" d="M544.9,563.4L431,366.4"/>
		<path class="st4" d="M488.1,578.7l98.3-170.4"/>
		<path class="st3" d="M488.1,578.7l113.6-113.6"/>
		<path class="st1" d="M488.1,578.7l98.3-56.8"/>
		<path class="st8" d="M488.1,578.7l56.8-15.3"/>
		<path class="st6" d="M488.1,578.7L488.1,578.7"/>
		<path class="st8" d="M488.1,578.7l-56.8-15.3"/>
		<path class="st2" d="M488.1,578.7l-98.7-56.8"/>
		<path class="st3" d="M488.1,578.7L374.6,465.1"/>
		<path class="st9" d="M488.1,578.7L389.5,408"/>
		<path class="st11" d="M488.1,578.7L431,366.4"/>
		<path class="st5" d="M431.3,563.4l155.1-155.1"/>
		<path class="st4" d="M431.3,563.4l170.4-98.3"/>
		<path class="st3" d="M431.3,563.4l155.1-41.5"/>
		<path class="st2" d="M431.3,563.4h113.6"/>
		<path class="st8" d="M431.3,563.4l56.8,15.3"/>
		<path class="st6" d="M431.3,563.4L431.3,563.4"/>
		<path class="st8" d="M431.3,563.4l-41.9-41.5"/>
		<path class="st1" d="M431.3,563.4l-56.8-98.3"/>
		<path class="st10" d="M431.3,563.4L389.5,408"/>
		<path class="st9" d="M431.3,563.4l-0.4-197"/>
		<path class="st6" d="M389.5,521.9l197-113.6"/>
		<path class="st11" d="M389.5,521.9l212.3-56.8"/>
		<path class="st9" d="M389.5,521.9h197"/>
		<path class="st10" d="M389.5,521.9l155.5,41.5"/>
		<path class="st2" d="M389.5,521.9l98.7,56.8"/>
		<path class="st8" d="M389.5,521.9l41.9,41.5"/>
		<path class="st6" d="M389.5,521.9L389.5,521.9"/>
		<path class="st8" d="M389.5,521.9l-14.9-56.8"/>
		<path class="st2" d="M389.5,521.9V408"/>
		<path class="st10" d="M389.5,521.9L431,366.4"/>
		<path class="st5" d="M374.6,465.1l211.9-56.8"/>
		<path class="st6" d="M374.6,465.1h227.2"/>
		<path class="st5" d="M374.6,465.1l211.9,56.8"/>
		<path class="st4" d="M374.6,465.1l170.4,98.3"/>
		<path class="st3" d="M374.6,465.1l113.6,113.6"/>
		<path class="st1" d="M374.6,465.1l56.8,98.3"/>
		<path class="st8" d="M374.6,465.1l14.9,56.8"/>
		<path class="st6" d="M374.6,465.1L374.6,465.1"/>
		<path class="st8" d="M374.6,465.1l14.9-57.1"/>
		<path class="st2" d="M374.6,465.1l56.4-98.7"/>
		<circle class="st7" cx="488.1" cy="351.5" r="6.4"/>
		<text transform="matrix(1 0 0 1 486.4619 353.4761)" style="fill:#010101; font-family:'ArialMT'; font-size:6.0345px;">0</text>
		<circle class="st7" cx="544.9" cy="366.4" r="6.4"/>
		<text transform="matrix(1 0 0 1 543.2559 368.3843)" style="fill:#010101; font-family:'ArialMT'; font-size:6.0345px;">1</text>
		<circle class="st7" cx="586.5" cy="408.3" r="6.4"/>
		<text transform="matrix(1 0 0 1 584.7871 410.2695)" style="fill:#010101; font-family:'ArialMT'; font-size:6.0345px;">2</text>
		<circle class="st7" cx="601.7" cy="465.1" r="6.4"/>
		<text transform="matrix(1 0 0 1 600.0508 467.0654)" style="fill:#010101; font-family:'ArialMT'; font-size:6.0345px;">3</text>
		<circle class="st7" cx="586.5" cy="521.9" r="6.4"/>
		<text transform="matrix(1 0 0 1 584.7871 523.8594)" style="fill:#010101; font-family:'ArialMT'; font-size:6.0345px;">4</text>
		<circle class="st7" cx="544.9" cy="563.4" r="6.4"/>
		<text transform="matrix(1 0 0 1 543.2559 565.3906)" style="fill:#010101; font-family:'ArialMT'; font-size:6.0345px;">5</text>
		<circle class="st7" cx="488.1" cy="578.7" r="6.4"/>
		<text transform="matrix(1 0 0 1 486.4619 580.6543)" style="fill:#010101; font-family:'ArialMT'; font-size:6.0345px;">6</text>
		<circle class="st7" cx="431.3" cy="563.4" r="6.4"/>
		<text transform="matrix(1 0 0 1 429.666 565.3906)" style="fill:#010101; font-family:'ArialMT'; font-size:6.0345px;">7</text>
		<circle class="st7" cx="389.5" cy="521.9" r="6.4"/>
		<text transform="matrix(1 0 0 1 387.7818 523.8594)" style="fill:#010101; font-family:'ArialMT'; font-size:6.0345px;">8</text>
		<circle class="st7" cx="374.6" cy="465.1" r="6.4"/>
		<text transform="matrix(1 0 0 1 372.8731 467.0654)" style="fill:#010101; font-family:'ArialMT'; font-size:6.0345px;">9</text>
		<circle class="st7" cx="389.5" cy="408" r="6.4"/>
		<text transform="matrix(1 0 0 1 386.1035 409.9141)" style="fill:#010101; font-family:'ArialMT'; font-size:6.0345px;">10</text>
		<circle class="st7" cx="431" cy="366.4" r="6.4"/>
		<text transform="matrix(1 0 0 1 427.8575 368.3843)" style="fill:#010101; font-family:'ArialMT'; font-size:6.0345px;">11</text>
	</g>
</g>
<g id="Prone_copy_2">
	<g id="Layer_4_copy_2">
		<circle cx="351.2" cy="253.2" r="4.9"/>
		<circle cx="390.3" cy="239.3" r="4.9"/>
		<circle cx="429.5" cy="270.3" r="4.9"/>
		<circle cx="546.8" cy="233.9" r="4.9"/>
		<circle cx="586" cy="222.4" r="4.9"/>
		<circle cx="625.1" cy="264.1" r="4.9"/>
		<polyline class="st12" points="351.2,253.2 390.3,239.3 429.5,270.3 468.6,258.5 507.7,246.3 546.8,233.9 586,222.4 625.1,264.1 
					"/>
		<g>
			<g>
				<path class="st12" d="M465.4,245.5c1-6.3,6.9-12.8,15.5-16.2c11.3-4.5,23-1.9,26.1,5.8"/>
				<g>
					<path d="M466,251.5c0.8-2.9,2.4-6.6,4.1-8.9l-4.6,2.1l-4.9-1.4C462.7,245.3,464.7,248.7,466,251.5z"/>
				</g>
			</g>
		</g>
		<path class="st12" d="M485.7,252.7"/>
		<g>
			<g>
				<path class="st12" d="M511.1,260.5c-1.5,6-7.2,11.9-15.2,15.1c-11.3,4.5-23,1.9-26.1-5.8"/>
				<g>
					<polygon points="510.8,253.4 506.9,263.5 510.9,261 515,263.3 					"/>
				</g>
			</g>
		</g>
		<rect x="263" y="30" class="st13" width="131.6" height="16"/>
		<text transform="matrix(1 0 0 1 293.8884 38.5571)" class="st14 st15">Probe Melody</text>
		<rect x="82" y="193.6" class="st13" width="131.6" height="16"/>
		<text transform="matrix(1 0 0 1 125.9088 202.0735)" class="st14 st15">Option 1</text>
		<rect x="422.4" y="193.6" class="st13" width="131.6" height="16"/>
		<text transform="matrix(1 0 0 1 466.2288 202.0735)" class="st14 st15">Option 2</text>
		<circle class="st16" cx="507.7" cy="246.3" r="4.9"/>
		<circle class="st17" cx="468.6" cy="258.5" r="4.9"/>
		<rect x="90.2" y="327.4" class="st13" width="131.6" height="16"/>
		<text transform="matrix(1 0 0 1 128.9059 335.9646)" class="st14 st15">Pentatonic</text>
		<rect x="422.4" y="327.4" class="st13" width="131.6" height="16"/>
		<text transform="matrix(1 0 0 1 462.1004 335.9646)" class="st14 st15">Chromatic</text>
	</g>
</g>
<g id="Prone_copy">
	<g id="Layer_4_copy">
		<g>
			<g>
				<polyline class="st18" points="224.9,238.9 226.1,237.9 224.7,238.6 				"/>
				<polyline class="st19" points="222.1,240.1 186.9,258.6 150.8,251.6 				"/>
				<polyline class="st18" points="149.3,251.3 147.8,251 149.2,251.6 				"/>
				<line class="st20" x1="152" y1="252.9" x2="184.2" y2="267.7"/>
				<polyline class="st18" points="185.6,268.3 186.9,268.9 188.1,268 				"/>
				<line class="st21" x1="190.6" y1="266.1" x2="223.7" y2="239.8"/>
			</g>
		</g>
		<circle cx="30.4" cy="257.3" r="4.9"/>
		<circle cx="69.6" cy="243.3" r="4.9"/>
		<circle cx="108.7" cy="274.4" r="4.9"/>
		<circle cx="226.1" cy="237.9" r="4.9"/>
		<circle cx="265.2" cy="226.5" r="4.9"/>
		<circle cx="304.3" cy="268.2" r="4.9"/>
		<polyline class="st12" points="30.4,257.3 69.6,243.3 108.7,274.4 147.8,250.4 186.9,262.6 226.1,237.9 265.2,226.5 304.3,268.2 
					"/>
		<g>
			<g>
				<line class="st22" x1="196.8" y1="267.5" x2="196.8" y2="256.2"/>
				<g>
					<polygon class="st23" points="199.8,266.6 196.8,271.8 193.8,266.6 					"/>
				</g>
				<g>
					<polygon class="st23" points="199.8,257.1 196.8,251.9 193.8,257.1 					"/>
				</g>
			</g>
		</g>
		<path class="st24" d="M218.8,277"/>
		<path class="st24" d="M213,267.5"/>
		<circle class="st25" cx="186.9" cy="257.7" r="4.9"/>
		<circle class="st26" cx="186.9" cy="267.5" r="4.9"/>
		<circle class="st27" cx="186.9" cy="262.6" r="4.9"/>
		
			<image style="overflow:visible;" width="1182" height="224" xlink:href="32FC3D01.jpg"  transform="matrix(1 0 0 1 -7863.2222 -7796)">
		</image>
		
			<image style="overflow:visible;" width="1182" height="224" xlink:href="32FC3D03.jpg"  transform="matrix(1 0 0 1 -7863.2222 -7796)">
		</image>
		<rect x="219" y="160" class="st13" width="219.6" height="12.5"/>
		<text transform="matrix(1 0 0 1 225.8134 168.5307)" class="st28 st15">Which is more different than the probe?</text>
		<circle class="st16" cx="147.8" cy="250.4" r="4.9"/>
	</g>
</g>
<g id="Prone">
	<g id="Probe">
	</g>
	<g id="Layer_2">
	</g>
	<g id="Layer_3">
	</g>
	<g id="Layer_4">
		<polyline class="st12" points="194.7,99.5 233.8,85.6 273,116.7 312.1,92.7 351.2,104.9 390.3,80.2 429.5,68.8 468.6,110.5 		"/>
		<g>
			<g>
				<polyline class="st12" points="184.1,58.3 184.1,126.3 482.1,126.3 				"/>
				<g>
					<polygon points="181.6,59 184.1,54.7 186.6,59 					"/>
				</g>
				<g>
					<polygon points="481.3,128.8 485.7,126.3 481.3,123.8 					"/>
				</g>
			</g>
		</g>
		<rect x="171.9" y="59.2" class="st13" width="9.5" height="29"/>
		<text transform="matrix(0 -1 1 0 180.4088 88.2153)" class="st14 st15">Pitch</text>
		<rect x="456.6" y="130" class="st13" width="29" height="9.5"/>
		<text transform="matrix(1 0 0 1 456.6296 138.557)" class="st14 st15">Time</text>
		<g>
			<g>
				<line class="st12" x1="194.7" y1="76.8" x2="194.7" y2="74.8"/>
				<polyline class="st12" points="194.7,71.2 194.7,69.2 196.7,69.2 				"/>
				<line class="st29" x1="200.6" y1="69.2" x2="229.9" y2="69.2"/>
				<polyline class="st12" points="231.8,69.2 233.8,69.2 233.8,71.2 				"/>
				<line class="st12" x1="233.8" y1="74.8" x2="233.8" y2="76.8"/>
			</g>
		</g>
		<rect x="192.8" y="54.7" class="st13" width="49.9" height="11.6"/>
		<text transform="matrix(1 0 0 1 194.1316 63.1866)" class="st14 st15">333 msec</text>
		<circle cx="194.7" cy="99.5" r="4.9"/>
		<circle cx="233.8" cy="85.6" r="4.9"/>
		<circle cx="273" cy="116.7" r="4.9"/>
		<circle class="st30" cx="312.1" cy="92.7" r="4.9"/>
		<circle class="st31" cx="351.2" cy="104.9" r="4.9"/>
		<circle cx="390.3" cy="80.2" r="4.9"/>
		<circle cx="429.5" cy="68.8" r="4.9"/>
		<circle cx="468.6" cy="110.5" r="4.9"/>
		<rect x="39.3" y="295.4" class="st13" width="217" height="13.6"/>
		<text transform="matrix(1 0 0 1 45.2824 303.9272)" class="st14 st15">(Same contour, but with an altered pitch)</text>
		<rect x="367.7" y="295.4" class="st13" width="246" height="13.6"/>
		<text transform="matrix(1 0 0 1 380.6736 303.9272)" class="st14 st15">(Same pitches, but with the contour altered)</text>
		<g>
			<g>
				<path class="st12" d="M328.8,521.2c14.1,0,25.6,11.5,25.6,25.6c0,14.1-11.5,25.6-25.6,25.6s-25.6-11.5-25.6-25.6
					c0-11.7,7.9-21.6,18.6-24.6"/>
				<g>
					<polygon points="328.8,521.2 319.6,526.7 321.3,522.4 318.3,518.7 					"/>
				</g>
			</g>
		</g>
		<rect x="302.9" y="542.2" class="st13" width="50.7" height="9.2"/>
		<text transform="matrix(1 0 0 1 309.9693 550.6977)" class="st28 st15">Octave</text>
	</g>
</g>
</svg>
